<svg version="1.0" xmlns="http://www.w3.org/2000/svg" viewBox="0 0 1536.000000 1536.000000"
 preserveAspectRatio="xMidYMid meet">
<g transform="translate(0.000000,1536.000000) scale(0.100000,-0.100000)"
fill="#000000" stroke="none">
<path d="M6855 10373 c-23 -6 -62 -39 -76 -65 -6 -11 -10 -977 -9 -2525 0
-1380 0 -2579 0 -2667 l0 -158 40 -40 c40 -40 41 -40 101 -36 56 4 65 8 95 41
26 28 34 46 35 74 0 21 1 1218 1 2659 0 2544 0 2623 -18 2654 -34 57 -96 80
-169 63z"/>
<path d="M7756 9459 c-60 -47 -57 22 -57 -1179 l-1 -1101 27 -34 c51 -68 110
-81 175 -40 76 48 71 -42 70 1186 l0 1102 -26 34 c-14 19 -37 38 -51 44 -43
16 -108 11 -137 -12z"/>
<path d="M5912 9400 c-20 -13 -41 -38 -53 -65 -19 -43 -19 -77 -17 -1887 3
-1758 4 -1845 21 -1871 28 -43 75 -67 131 -67 43 0 53 4 87 39 l39 39 0 1868
c0 1836 0 1870 -20 1901 -37 62 -124 82 -188 43z"/>
<path d="M9655 9337 c-26 -8 -47 -24 -62 -46 l-23 -34 0 -1679 0 -1680 33 -33
c65 -65 173 -54 225 25 l23 34 -5 1660 c-5 1590 -6 1661 -24 1695 -30 57 -96
80 -167 58z"/>
<path d="M10553 8925 c-65 -28 -61 55 -64 -1330 -3 -1162 -2 -1262 13 -1291
47 -87 201 -82 249 8 6 11 9 513 9 1275 0 1184 -1 1258 -18 1287 -34 59 -119
82 -189 51z"/>
<path d="M4042 8818 c-20 -15 -36 -38 -44 -63 -17 -55 -15 -2269 2 -2320 30
-90 162 -112 231 -39 l24 26 3 1159 c3 1288 7 1210 -63 1243 -49 23 -114 20
-153 -6z"/>
<path d="M4994 8540 c-26 -10 -72 -65 -79 -93 -3 -12 -4 -460 -3 -994 l3 -973
36 -36 c65 -65 172 -55 219 21 20 32 20 47 20 1003 0 647 -3 980 -10 998 -26
67 -116 103 -186 74z"/>
<path d="M8694 8401 c-66 -40 -63 7 -58 -961 4 -803 6 -877 22 -904 20 -34 75
-66 113 -66 44 0 98 29 119 63 20 31 20 51 18 917 -3 867 -3 886 -23 912 -42
57 -132 75 -191 39z"/>
<path d="M3123 8260 c-12 -5 -31 -27 -43 -49 -19 -39 -20 -56 -20 -593 0 -534
1 -554 20 -586 25 -40 75 -72 115 -72 40 0 94 28 119 62 19 27 19 43 18 595
-1 380 -5 576 -12 593 -16 39 -60 60 -122 59 -29 0 -63 -4 -75 -9z"/>
<path d="M11497 8118 c-29 -8 -43 -20 -62 -52 l-25 -43 0 -397 c0 -429 1 -436
54 -486 23 -20 37 -25 86 -25 49 0 63 5 86 25 53 49 54 58 54 482 0 354 -2
396 -18 427 -32 63 -98 89 -175 69z"/>
<path d="M2214 7751 c-33 -14 -83 -78 -89 -115 -19 -97 60 -196 155 -196 43 0
104 33 132 72 44 63 24 174 -40 223 -29 21 -123 31 -158 16z"/>
<path d="M12385 7748 c-87 -44 -107 -191 -34 -259 32 -30 116 -54 151 -44 130
40 160 216 49 291 -28 19 -48 24 -91 23 -30 0 -64 -5 -75 -11z"/>
<path d="M13232 7735 c-39 -32 -62 -83 -62 -135 0 -50 19 -89 60 -124 26 -21
42 -26 89 -26 97 0 161 65 161 163 0 85 -70 147 -167 147 -40 0 -58 -5 -81
-25z"/>
</g>
</svg>
